G04*
G04 #@! TF.GenerationSoftware,Altium Limited,Altium Designer,19.0.13 (425)*
G04*
G04 Layer_Physical_Order=3*
G04 Layer_Color=36540*
%FSLAX44Y44*%
%MOMM*%
G71*
G01*
G75*
%ADD10C,0.2000*%
%ADD25C,0.6000*%
%ADD30C,1.0000*%
D10*
X320000Y228000D02*
Y257000D01*
X310000Y267000D02*
X320000Y257000D01*
X260000Y267000D02*
X310000D01*
X232500Y294500D02*
X260000Y267000D01*
X232500Y294500D02*
Y305000D01*
X296000Y204000D02*
X320000Y228000D01*
X243000Y204000D02*
X296000D01*
D25*
X104000Y409000D02*
D03*
X192000Y131000D02*
D03*
X254500Y289000D02*
D03*
X223000Y288049D02*
D03*
X300500Y230000D02*
D03*
X386000Y380000D02*
D03*
Y120000D02*
D03*
X210000Y231000D02*
D03*
X212000Y266000D02*
D03*
X232500Y305000D02*
D03*
X233000Y216000D02*
D03*
X192000Y370950D02*
D03*
X135000Y130950D02*
D03*
Y169050D02*
D03*
Y370950D02*
D03*
X198500Y312000D02*
D03*
X127000Y250000D02*
D03*
X308000Y195500D02*
D03*
X243000Y204000D02*
D03*
X198500Y186000D02*
D03*
D30*
X104000Y409000D02*
X155000D01*
X172000Y392000D01*
X198500Y137500D02*
Y186000D01*
X192000Y131000D02*
X198500Y137500D01*
X187142Y246000D02*
X223000D01*
X183142Y250000D02*
X187142Y246000D01*
X127000Y250000D02*
X183142D01*
X323500Y358000D02*
X364000D01*
X254500Y289000D02*
X323500Y358000D01*
X207000Y271000D02*
X212000Y266000D01*
X181471Y271000D02*
X207000D01*
X142000Y310471D02*
X181471Y271000D01*
X217049Y294000D02*
X223000Y288049D01*
X190000Y294000D02*
X217049D01*
X172000Y312000D02*
X190000Y294000D01*
X120000Y203000D02*
X139000Y222000D01*
X120000Y145950D02*
Y203000D01*
Y145950D02*
X135000Y130950D01*
X223000Y246000D02*
X226000Y249000D01*
X281500D01*
X300500Y230000D01*
X364000Y358000D02*
X386000Y380000D01*
Y120000D02*
Y133000D01*
X338000Y181000D02*
X386000Y133000D01*
X322500Y181000D02*
X338000D01*
X308000Y195500D02*
X322500Y181000D01*
X142000Y310471D02*
Y363950D01*
X201000Y222000D02*
X210000Y231000D01*
X139000Y222000D02*
X201000D01*
X189000Y202000D02*
X219000D01*
X156050Y169050D02*
X189000Y202000D01*
X135000Y169050D02*
X156050D01*
X219000Y202000D02*
X233000Y216000D01*
X135000Y370950D02*
X142000Y363950D01*
X172000Y312000D02*
Y392000D01*
X192000Y370950D02*
X198500Y364450D01*
Y312000D02*
Y364450D01*
M02*
