G04*
G04 #@! TF.GenerationSoftware,Altium Limited,Altium Designer,19.0.13 (425)*
G04*
G04 Layer_Color=8388736*
%FSLAX44Y44*%
%MOMM*%
G71*
G01*
G75*
%ADD16C,0.3000*%
%ADD17C,0.2500*%
%ADD18R,2.3032X0.8032*%
%ADD19R,4.0532X5.7032*%
%ADD20R,1.1032X2.7032*%
%ADD21R,2.7532X3.9532*%
%ADD22C,4.2032*%
D16*
X30157Y55235D02*
X20000D01*
Y47618D01*
X25078D01*
X20000D01*
Y40000D01*
X45392Y55235D02*
X35235D01*
Y40000D01*
X45392D01*
X35235Y47618D02*
X40313D01*
X50470Y55235D02*
Y40000D01*
X58088D01*
X60627Y42539D01*
Y52696D01*
X58088Y55235D01*
X50470D01*
X75862D02*
X65705D01*
Y40000D01*
X75862D01*
X65705Y47618D02*
X70784D01*
X80940Y55235D02*
Y45078D01*
X86019Y40000D01*
X91097Y45078D01*
Y55235D01*
X106332D02*
X96175D01*
Y40000D01*
X106332D01*
X96175Y47618D02*
X101254D01*
X111410Y55235D02*
Y40000D01*
X121567D01*
X141881D02*
Y50157D01*
X146959Y55235D01*
X152037Y50157D01*
Y40000D01*
Y47618D01*
X141881D01*
X167272Y50157D02*
X159655D01*
X157116Y47618D01*
Y42539D01*
X159655Y40000D01*
X167272D01*
X174890Y50157D02*
X179968D01*
X182507Y47618D01*
Y40000D01*
X174890D01*
X172351Y42539D01*
X174890Y45078D01*
X182507D01*
X197743Y55235D02*
Y40000D01*
X190125D01*
X187586Y42539D01*
Y47618D01*
X190125Y50157D01*
X197743D01*
X210438Y40000D02*
X205360D01*
X202821Y42539D01*
Y47618D01*
X205360Y50157D01*
X210438D01*
X212978Y47618D01*
Y45078D01*
X202821D01*
X218056Y40000D02*
Y50157D01*
X220595D01*
X223134Y47618D01*
Y40000D01*
Y47618D01*
X225674Y50157D01*
X228213Y47618D01*
Y40000D01*
X233291Y50157D02*
Y42539D01*
X235830Y40000D01*
X243448D01*
Y37461D01*
X240909Y34922D01*
X238369D01*
X243448Y40000D02*
Y50157D01*
D17*
X27997Y29997D02*
X25998Y31996D01*
X21999D01*
X20000Y29997D01*
Y27997D01*
X21999Y25998D01*
X25998D01*
X27997Y23999D01*
Y21999D01*
X25998Y20000D01*
X21999D01*
X20000Y21999D01*
X39994Y27997D02*
X33995D01*
X31996Y25998D01*
Y21999D01*
X33995Y20000D01*
X39994D01*
X43992Y31996D02*
Y20000D01*
Y25998D01*
X45992Y27997D01*
X49990D01*
X51990Y25998D01*
Y20000D01*
X61986D02*
X57988D01*
X55988Y21999D01*
Y25998D01*
X57988Y27997D01*
X61986D01*
X63986Y25998D01*
Y23999D01*
X55988D01*
X67984Y20000D02*
Y27997D01*
X69984D01*
X71983Y25998D01*
Y20000D01*
Y25998D01*
X73983Y27997D01*
X75982Y25998D01*
Y20000D01*
X81980Y27997D02*
X85979D01*
X87978Y25998D01*
Y20000D01*
X81980D01*
X79981Y21999D01*
X81980Y23999D01*
X87978D01*
X93976Y29997D02*
Y27997D01*
X91977D01*
X95975D01*
X93976D01*
Y21999D01*
X95975Y20000D01*
X101973D02*
X105972D01*
X103973D01*
Y27997D01*
X101973D01*
X119968D02*
X113970D01*
X111970Y25998D01*
Y21999D01*
X113970Y20000D01*
X119968D01*
X143960D02*
X141960Y21999D01*
X139961Y20000D01*
X137962D01*
X135962Y21999D01*
Y23999D01*
X137962Y25998D01*
X135962Y27997D01*
Y29997D01*
X137962Y31996D01*
X139961D01*
X141960Y29997D01*
Y27997D01*
X139961Y25998D01*
X141960Y23999D01*
Y21999D01*
X143960Y25998D02*
X141960Y23999D01*
X137962Y25998D02*
X139961D01*
X159955Y20000D02*
Y31996D01*
X165953D01*
X167952Y29997D01*
Y25998D01*
X165953Y23999D01*
X159955D01*
X179948Y29997D02*
X177949Y31996D01*
X173950D01*
X171951Y29997D01*
Y21999D01*
X173950Y20000D01*
X177949D01*
X179948Y21999D01*
X183947Y31996D02*
Y20000D01*
X189945D01*
X191944Y21999D01*
Y23999D01*
X189945Y25998D01*
X183947D01*
X189945D01*
X191944Y27997D01*
Y29997D01*
X189945Y31996D01*
X183947D01*
X207939D02*
Y20000D01*
X213937D01*
X215937Y21999D01*
Y29997D01*
X213937Y31996D01*
X207939D01*
X225933Y20000D02*
X221935D01*
X219935Y21999D01*
Y25998D01*
X221935Y27997D01*
X225933D01*
X227933Y25998D01*
Y23999D01*
X219935D01*
X231931Y20000D02*
X237929D01*
X239929Y21999D01*
X237929Y23999D01*
X233931D01*
X231931Y25998D01*
X233931Y27997D01*
X239929D01*
X243927Y20000D02*
X247926D01*
X245927D01*
Y27997D01*
X243927D01*
X257923Y16001D02*
X259922D01*
X261922Y18001D01*
Y27997D01*
X255924D01*
X253924Y25998D01*
Y21999D01*
X255924Y20000D01*
X261922D01*
X265920D02*
Y27997D01*
X271919D01*
X273918Y25998D01*
Y20000D01*
X297910Y29997D02*
X295911Y31996D01*
X291912D01*
X289913Y29997D01*
Y21999D01*
X291912Y20000D01*
X295911D01*
X297910Y21999D01*
X303908Y20000D02*
X307907D01*
X309906Y21999D01*
Y25998D01*
X307907Y27997D01*
X303908D01*
X301909Y25998D01*
Y21999D01*
X303908Y20000D01*
X313905Y27997D02*
Y21999D01*
X315904Y20000D01*
X321902D01*
Y27997D01*
X325901D02*
Y20000D01*
Y23999D01*
X327900Y25998D01*
X329900Y27997D01*
X331899D01*
X337897Y20000D02*
X343895D01*
X345895Y21999D01*
X343895Y23999D01*
X339897D01*
X337897Y25998D01*
X339897Y27997D01*
X345895D01*
X355891Y20000D02*
X351893D01*
X349893Y21999D01*
Y25998D01*
X351893Y27997D01*
X355891D01*
X357891Y25998D01*
Y23999D01*
X349893D01*
X361889Y20000D02*
X367887D01*
X369887Y21999D01*
X367887Y23999D01*
X363889D01*
X361889Y25998D01*
X363889Y27997D01*
X369887D01*
D18*
X118000Y169050D02*
D03*
Y156350D02*
D03*
Y143650D02*
D03*
Y130950D02*
D03*
X176000Y169050D02*
D03*
Y156350D02*
D03*
Y143650D02*
D03*
Y130950D02*
D03*
Y370950D02*
D03*
Y383650D02*
D03*
Y396350D02*
D03*
Y409050D02*
D03*
X118000Y370950D02*
D03*
Y383650D02*
D03*
Y396350D02*
D03*
Y409050D02*
D03*
D19*
X322750Y130000D02*
D03*
X223250D02*
D03*
X223250Y370000D02*
D03*
X322750D02*
D03*
D20*
X150500Y200000D02*
D03*
X181500D02*
D03*
Y440000D02*
D03*
X150500D02*
D03*
D21*
X386000Y143000D02*
D03*
Y197000D02*
D03*
Y357000D02*
D03*
Y303000D02*
D03*
D22*
X50000Y300000D02*
D03*
Y200000D02*
D03*
X450000Y360000D02*
D03*
Y140000D02*
D03*
Y300000D02*
D03*
Y200000D02*
D03*
M02*
