G04*
G04 #@! TF.GenerationSoftware,Altium Limited,Altium Designer,19.0.13 (425)*
G04*
G04 Layer_Physical_Order=4*
G04 Layer_Color=16440176*
%FSLAX44Y44*%
%MOMM*%
G71*
G01*
G75*
%ADD25C,0.6000*%
G36*
X425000Y449000D02*
Y50000D01*
X75000D01*
Y450000D01*
X185081D01*
X185902Y449000D01*
X186290Y447049D01*
X187111Y445820D01*
X187280Y444500D01*
X187111Y443180D01*
X186290Y441951D01*
X185902Y440000D01*
X186290Y438049D01*
X187111Y436820D01*
X187280Y435500D01*
X187111Y434180D01*
X186290Y432951D01*
X185902Y431000D01*
X186290Y429049D01*
X187395Y427395D01*
X189049Y426290D01*
X191000Y425902D01*
X192951Y426290D01*
X194605Y427395D01*
X195710Y429049D01*
X196098Y431000D01*
X195710Y432951D01*
X194889Y434180D01*
X194720Y435500D01*
X194889Y436820D01*
X195710Y438049D01*
X196098Y440000D01*
X195710Y441951D01*
X194889Y443180D01*
X194720Y444500D01*
X194889Y445820D01*
X195710Y447049D01*
X196098Y449000D01*
X196919Y450000D01*
X424000D01*
X425000Y449000D01*
D02*
G37*
%LPC*%
G36*
X104000Y414098D02*
X102049Y413710D01*
X100395Y412605D01*
X99290Y410951D01*
X98902Y409000D01*
X99290Y407049D01*
X100395Y405395D01*
X102049Y404290D01*
X104000Y403902D01*
X105951Y404290D01*
X107605Y405395D01*
X108710Y407049D01*
X109098Y409000D01*
X108710Y410951D01*
X107605Y412605D01*
X105951Y413710D01*
X104000Y414098D01*
D02*
G37*
G36*
X284000Y410098D02*
X282049Y409710D01*
X280395Y408605D01*
X279290Y406951D01*
X278902Y405000D01*
X279290Y403049D01*
X280395Y401395D01*
X282049Y400290D01*
X284000Y399902D01*
X285951Y400290D01*
X287605Y401395D01*
X288710Y403049D01*
X289098Y405000D01*
X288710Y406951D01*
X287605Y408605D01*
X285951Y409710D01*
X284000Y410098D01*
D02*
G37*
G36*
X85000Y400098D02*
X83049Y399710D01*
X81395Y398605D01*
X80290Y396951D01*
X79902Y395000D01*
X80290Y393049D01*
X81395Y391395D01*
X83049Y390290D01*
X85000Y389902D01*
X86951Y390290D01*
X88605Y391395D01*
X89710Y393049D01*
X90098Y395000D01*
X89710Y396951D01*
X88605Y398605D01*
X86951Y399710D01*
X85000Y400098D01*
D02*
G37*
G36*
X104000D02*
X102049Y399710D01*
X100395Y398605D01*
X99290Y396951D01*
X98902Y395000D01*
X99290Y393049D01*
X100395Y391395D01*
X99715Y389511D01*
X98704Y388822D01*
X98180Y388889D01*
X96951Y389710D01*
X95000Y390098D01*
X93049Y389710D01*
X91395Y388605D01*
X90290Y386951D01*
X89902Y385000D01*
X90290Y383049D01*
X91395Y381395D01*
X93049Y380290D01*
X95000Y379902D01*
X96951Y380290D01*
X98180Y381111D01*
X99500Y381280D01*
X100820Y381111D01*
X102049Y380290D01*
X104000Y379902D01*
X105951Y380290D01*
X107605Y381395D01*
X108710Y383049D01*
X109098Y385000D01*
X108710Y386951D01*
X107605Y388605D01*
X107317Y388797D01*
Y391203D01*
X107605Y391395D01*
X108710Y393049D01*
X109098Y395000D01*
X108710Y396951D01*
X107605Y398605D01*
X105951Y399710D01*
X104000Y400098D01*
D02*
G37*
G36*
X386000Y385098D02*
X384049Y384710D01*
X382395Y383605D01*
X381290Y381951D01*
X380902Y380000D01*
X381290Y378049D01*
X382395Y376395D01*
X384049Y375290D01*
X386000Y374902D01*
X387951Y375290D01*
X389605Y376395D01*
X390710Y378049D01*
X391098Y380000D01*
X390710Y381951D01*
X389605Y383605D01*
X387951Y384710D01*
X386000Y385098D01*
D02*
G37*
G36*
X85000Y380098D02*
X83049Y379710D01*
X81395Y378605D01*
X80290Y376951D01*
X79902Y375000D01*
X80290Y373049D01*
X81395Y371395D01*
X83049Y370290D01*
X85000Y369902D01*
X86951Y370290D01*
X88605Y371395D01*
X89710Y373049D01*
X90098Y375000D01*
X89710Y376951D01*
X88605Y378605D01*
X86951Y379710D01*
X85000Y380098D01*
D02*
G37*
G36*
X192000Y376048D02*
X190049Y375660D01*
X188395Y374555D01*
X187290Y372901D01*
X186902Y370950D01*
X187290Y368999D01*
X188395Y367345D01*
X190049Y366240D01*
X192000Y365852D01*
X193951Y366240D01*
X195605Y367345D01*
X196710Y368999D01*
X197098Y370950D01*
X196710Y372901D01*
X195605Y374555D01*
X193951Y375660D01*
X192000Y376048D01*
D02*
G37*
G36*
X135000D02*
X133049Y375660D01*
X131395Y374555D01*
X130290Y372901D01*
X129902Y370950D01*
X130290Y368999D01*
X131395Y367345D01*
X133049Y366240D01*
X135000Y365852D01*
X136951Y366240D01*
X138605Y367345D01*
X139710Y368999D01*
X140098Y370950D01*
X139710Y372901D01*
X138605Y374555D01*
X136951Y375660D01*
X135000Y376048D01*
D02*
G37*
G36*
X95000Y370098D02*
X93049Y369710D01*
X91395Y368605D01*
X90290Y366951D01*
X89902Y365000D01*
X90290Y363049D01*
X91395Y361395D01*
X93049Y360290D01*
X95000Y359902D01*
X96951Y360290D01*
X98605Y361395D01*
X99710Y363049D01*
X100098Y365000D01*
X99710Y366951D01*
X98605Y368605D01*
X96951Y369710D01*
X95000Y370098D01*
D02*
G37*
G36*
X105000Y360098D02*
X103049Y359710D01*
X101395Y358605D01*
X100290Y356951D01*
X99902Y355000D01*
X100290Y353049D01*
X101395Y351395D01*
X103049Y350290D01*
X105000Y349902D01*
X106951Y350290D01*
X108605Y351395D01*
X109710Y353049D01*
X110098Y355000D01*
X109710Y356951D01*
X108605Y358605D01*
X106951Y359710D01*
X105000Y360098D01*
D02*
G37*
G36*
X85000D02*
X83049Y359710D01*
X81395Y358605D01*
X80290Y356951D01*
X79902Y355000D01*
X80290Y353049D01*
X81395Y351395D01*
X83049Y350290D01*
X85000Y349902D01*
X86951Y350290D01*
X88605Y351395D01*
X89710Y353049D01*
X90098Y355000D01*
X89710Y356951D01*
X88605Y358605D01*
X86951Y359710D01*
X85000Y360098D01*
D02*
G37*
G36*
X115000Y350098D02*
X113049Y349710D01*
X111395Y348605D01*
X110290Y346951D01*
X109902Y345000D01*
X110290Y343049D01*
X111395Y341395D01*
X113049Y340290D01*
X115000Y339902D01*
X116951Y340290D01*
X118605Y341395D01*
X119710Y343049D01*
X120098Y345000D01*
X119710Y346951D01*
X118605Y348605D01*
X116951Y349710D01*
X115000Y350098D01*
D02*
G37*
G36*
X95000D02*
X93049Y349710D01*
X91395Y348605D01*
X90290Y346951D01*
X89902Y345000D01*
X90290Y343049D01*
X91395Y341395D01*
X93049Y340290D01*
X95000Y339902D01*
X96951Y340290D01*
X98605Y341395D01*
X99710Y343049D01*
X100098Y345000D01*
X99710Y346951D01*
X98605Y348605D01*
X96951Y349710D01*
X95000Y350098D01*
D02*
G37*
G36*
X105000Y340098D02*
X103049Y339710D01*
X101395Y338605D01*
X100290Y336951D01*
X99902Y335000D01*
X100290Y333049D01*
X101395Y331395D01*
X103049Y330290D01*
X105000Y329902D01*
X106951Y330290D01*
X108605Y331395D01*
X109710Y333049D01*
X110098Y335000D01*
X109710Y336951D01*
X108605Y338605D01*
X106951Y339710D01*
X105000Y340098D01*
D02*
G37*
G36*
X85000D02*
X83049Y339710D01*
X81395Y338605D01*
X80290Y336951D01*
X79902Y335000D01*
X80290Y333049D01*
X81395Y331395D01*
X83049Y330290D01*
X85000Y329902D01*
X86951Y330290D01*
X88605Y331395D01*
X89710Y333049D01*
X90098Y335000D01*
X89710Y336951D01*
X88605Y338605D01*
X86951Y339710D01*
X85000Y340098D01*
D02*
G37*
G36*
X324000Y331098D02*
X322049Y330710D01*
X320500Y329675D01*
X318951Y330710D01*
X317000Y331098D01*
X315049Y330710D01*
X313395Y329605D01*
X312290Y327951D01*
X311902Y326000D01*
X312290Y324049D01*
X313395Y322395D01*
X315049Y321290D01*
X317000Y320902D01*
X318951Y321290D01*
X320500Y322325D01*
X322049Y321290D01*
X324000Y320902D01*
X325951Y321290D01*
X327605Y322395D01*
X328710Y324049D01*
X329098Y326000D01*
X328710Y327951D01*
X327605Y329605D01*
X325951Y330710D01*
X324000Y331098D01*
D02*
G37*
G36*
X115000Y330098D02*
X113049Y329710D01*
X111395Y328605D01*
X110290Y326951D01*
X109902Y325000D01*
X110290Y323049D01*
X111395Y321395D01*
X113049Y320290D01*
X115000Y319902D01*
X116951Y320290D01*
X118605Y321395D01*
X119710Y323049D01*
X120098Y325000D01*
X119710Y326951D01*
X118605Y328605D01*
X116951Y329710D01*
X115000Y330098D01*
D02*
G37*
G36*
X95000D02*
X93049Y329710D01*
X91395Y328605D01*
X90290Y326951D01*
X89902Y325000D01*
X90290Y323049D01*
X91395Y321395D01*
X93049Y320290D01*
X95000Y319902D01*
X96951Y320290D01*
X98605Y321395D01*
X99710Y323049D01*
X100098Y325000D01*
X99710Y326951D01*
X98605Y328605D01*
X96951Y329710D01*
X95000Y330098D01*
D02*
G37*
G36*
X247500Y321598D02*
X245549Y321210D01*
X243895Y320105D01*
X242790Y318451D01*
X242402Y316500D01*
X242790Y314549D01*
X243895Y312895D01*
X245549Y311790D01*
X247500Y311402D01*
X249451Y311790D01*
X251105Y312895D01*
X252210Y314549D01*
X252598Y316500D01*
X252210Y318451D01*
X251105Y320105D01*
X249451Y321210D01*
X247500Y321598D01*
D02*
G37*
G36*
X403000Y319098D02*
X401049Y318710D01*
X399395Y317605D01*
X398290Y315951D01*
X397902Y314000D01*
X398290Y312049D01*
X399395Y310395D01*
X401049Y309290D01*
X403000Y308902D01*
X404951Y309290D01*
X406605Y310395D01*
X407710Y312049D01*
X408098Y314000D01*
X407710Y315951D01*
X406605Y317605D01*
X404951Y318710D01*
X403000Y319098D01*
D02*
G37*
G36*
X369000D02*
X367049Y318710D01*
X365395Y317605D01*
X364290Y315951D01*
X363902Y314000D01*
X364290Y312049D01*
X365395Y310395D01*
X367049Y309290D01*
X369000Y308902D01*
X370951Y309290D01*
X372605Y310395D01*
X373710Y312049D01*
X374098Y314000D01*
X373710Y315951D01*
X372605Y317605D01*
X370951Y318710D01*
X369000Y319098D01*
D02*
G37*
G36*
X198500Y317098D02*
X196549Y316710D01*
X194895Y315605D01*
X193790Y313951D01*
X193402Y312000D01*
X193790Y310049D01*
X194895Y308395D01*
X196549Y307290D01*
X198500Y306902D01*
X200451Y307290D01*
X202105Y308395D01*
X203210Y310049D01*
X203598Y312000D01*
X203210Y313951D01*
X202105Y315605D01*
X200451Y316710D01*
X198500Y317098D01*
D02*
G37*
G36*
X232500Y310098D02*
X230549Y309710D01*
X228895Y308605D01*
X227790Y306951D01*
X227402Y305000D01*
X227790Y303049D01*
X228895Y301395D01*
X230549Y300290D01*
X232500Y299902D01*
X234451Y300290D01*
X236105Y301395D01*
X237210Y303049D01*
X237598Y305000D01*
X237210Y306951D01*
X236105Y308605D01*
X234451Y309710D01*
X232500Y310098D01*
D02*
G37*
G36*
X329000Y307098D02*
X327049Y306710D01*
X325395Y305605D01*
X324290Y303951D01*
X323902Y302000D01*
X324290Y300049D01*
X325395Y298395D01*
Y297605D01*
X324290Y295951D01*
X323902Y294000D01*
X324290Y292049D01*
X325395Y290395D01*
X327049Y289290D01*
X329000Y288902D01*
X330951Y289290D01*
X332605Y290395D01*
X333710Y292049D01*
X334098Y294000D01*
X333710Y295951D01*
X332605Y297605D01*
Y298395D01*
X333710Y300049D01*
X334098Y302000D01*
X333710Y303951D01*
X332605Y305605D01*
X330951Y306710D01*
X329000Y307098D01*
D02*
G37*
G36*
X403000Y299098D02*
X401049Y298710D01*
X399395Y297605D01*
X398290Y295951D01*
X397902Y294000D01*
X398290Y292049D01*
X399395Y290395D01*
X401049Y289290D01*
X403000Y288902D01*
X404951Y289290D01*
X406605Y290395D01*
X407710Y292049D01*
X408098Y294000D01*
X407710Y295951D01*
X406605Y297605D01*
X404951Y298710D01*
X403000Y299098D01*
D02*
G37*
G36*
X369000D02*
X367049Y298710D01*
X365395Y297605D01*
X364290Y295951D01*
X363902Y294000D01*
X364290Y292049D01*
X365395Y290395D01*
X367049Y289290D01*
X369000Y288902D01*
X370951Y289290D01*
X372605Y290395D01*
X373710Y292049D01*
X374098Y294000D01*
X373710Y295951D01*
X372605Y297605D01*
X370951Y298710D01*
X369000Y299098D01*
D02*
G37*
G36*
X245000D02*
X243049Y298710D01*
X241395Y297605D01*
X240290Y295951D01*
X239902Y294000D01*
X240290Y292049D01*
X241395Y290395D01*
X243049Y289290D01*
X245000Y288902D01*
X246951Y289290D01*
X247493Y289652D01*
X248243Y289396D01*
X249486Y288578D01*
X249790Y287049D01*
X250895Y285395D01*
X252549Y284290D01*
X254500Y283902D01*
X256451Y284290D01*
X258105Y285395D01*
X259210Y287049D01*
X259598Y289000D01*
X259210Y290951D01*
X258105Y292605D01*
X256451Y293710D01*
X254500Y294098D01*
X252549Y293710D01*
X252007Y293348D01*
X251257Y293604D01*
X250014Y294422D01*
X249710Y295951D01*
X248605Y297605D01*
X246951Y298710D01*
X245000Y299098D01*
D02*
G37*
G36*
X223000Y293147D02*
X221049Y292759D01*
X219395Y291654D01*
X218290Y290000D01*
X217902Y288049D01*
X218290Y286098D01*
X219395Y284445D01*
X221049Y283340D01*
X223000Y282952D01*
X224951Y283340D01*
X226605Y284445D01*
X227710Y286098D01*
X228098Y288049D01*
X227710Y290000D01*
X226605Y291654D01*
X224951Y292759D01*
X223000Y293147D01*
D02*
G37*
G36*
X125000Y290098D02*
X123049Y289710D01*
X121395Y288605D01*
X120290Y286951D01*
X119902Y285000D01*
X120290Y283049D01*
X121395Y281395D01*
X123049Y280290D01*
X125000Y279902D01*
X126951Y280290D01*
X128605Y281395D01*
X129710Y283049D01*
X130098Y285000D01*
X129710Y286951D01*
X128605Y288605D01*
X126951Y289710D01*
X125000Y290098D01*
D02*
G37*
G36*
X394000Y285098D02*
X392049Y284710D01*
X390395Y283605D01*
X389290Y281951D01*
X388902Y280000D01*
X389290Y278049D01*
X390395Y276395D01*
X392049Y275290D01*
X394000Y274902D01*
X395951Y275290D01*
X397605Y276395D01*
X398710Y278049D01*
X399098Y280000D01*
X398710Y281951D01*
X397605Y283605D01*
X395951Y284710D01*
X394000Y285098D01*
D02*
G37*
G36*
X378000D02*
X376049Y284710D01*
X374395Y283605D01*
X373290Y281951D01*
X372902Y280000D01*
X373290Y278049D01*
X374395Y276395D01*
X376049Y275290D01*
X378000Y274902D01*
X379951Y275290D01*
X381605Y276395D01*
X382710Y278049D01*
X383098Y280000D01*
X382710Y281951D01*
X381605Y283605D01*
X379951Y284710D01*
X378000Y285098D01*
D02*
G37*
G36*
X212000Y271098D02*
X210049Y270710D01*
X208395Y269605D01*
X207290Y267951D01*
X206902Y266000D01*
X207290Y264049D01*
X208395Y262395D01*
X210049Y261290D01*
X212000Y260902D01*
X213951Y261290D01*
X215605Y262395D01*
X216710Y264049D01*
X217098Y266000D01*
X216710Y267951D01*
X215605Y269605D01*
X213951Y270710D01*
X212000Y271098D01*
D02*
G37*
G36*
X329000Y274098D02*
X327049Y273710D01*
X325395Y272605D01*
X324290Y270951D01*
X323902Y269000D01*
X324290Y267049D01*
X325395Y265395D01*
Y264605D01*
X324290Y262951D01*
X323902Y261000D01*
X324290Y259049D01*
X325395Y257395D01*
X327049Y256290D01*
X329000Y255902D01*
X330951Y256290D01*
X332605Y257395D01*
X333710Y259049D01*
X334098Y261000D01*
X333710Y262951D01*
X332605Y264605D01*
Y265395D01*
X333710Y267049D01*
X334098Y269000D01*
X333710Y270951D01*
X332605Y272605D01*
X330951Y273710D01*
X329000Y274098D01*
D02*
G37*
G36*
X261000Y266098D02*
X259049Y265710D01*
X257395Y264605D01*
X256290Y262951D01*
X255902Y261000D01*
X256290Y259049D01*
X257395Y257395D01*
X259049Y256290D01*
X261000Y255902D01*
X262951Y256290D01*
X264605Y257395D01*
X265710Y259049D01*
X266098Y261000D01*
X265710Y262951D01*
X264605Y264605D01*
X262951Y265710D01*
X261000Y266098D01*
D02*
G37*
G36*
X239000D02*
X237049Y265710D01*
X235395Y264605D01*
X234290Y262951D01*
X233902Y261000D01*
X234290Y259049D01*
X235395Y257395D01*
X237049Y256290D01*
X239000Y255902D01*
X240951Y256290D01*
X242605Y257395D01*
X243710Y259049D01*
X244098Y261000D01*
X243710Y262951D01*
X242605Y264605D01*
X240951Y265710D01*
X239000Y266098D01*
D02*
G37*
G36*
X311000Y258098D02*
X309049Y257710D01*
X307395Y256605D01*
X306290Y254951D01*
X305902Y253000D01*
X306290Y251049D01*
X307395Y249395D01*
X309049Y248290D01*
X311000Y247902D01*
X312951Y248290D01*
X314605Y249395D01*
X315710Y251049D01*
X316098Y253000D01*
X315710Y254951D01*
X314605Y256605D01*
X312951Y257710D01*
X311000Y258098D01*
D02*
G37*
G36*
X127000Y255098D02*
X125049Y254710D01*
X123395Y253605D01*
X122290Y251951D01*
X121902Y250000D01*
X122290Y248049D01*
X123395Y246395D01*
X125049Y245290D01*
X127000Y244902D01*
X128951Y245290D01*
X130605Y246395D01*
X131710Y248049D01*
X132098Y250000D01*
X131710Y251951D01*
X130605Y253605D01*
X128951Y254710D01*
X127000Y255098D01*
D02*
G37*
G36*
X183000Y241098D02*
X181049Y240710D01*
X179500Y239675D01*
X177951Y240710D01*
X176000Y241098D01*
X174049Y240710D01*
X172395Y239605D01*
X171290Y237951D01*
X170902Y236000D01*
X171290Y234049D01*
X172395Y232395D01*
X174049Y231290D01*
X176000Y230902D01*
X177951Y231290D01*
X179500Y232325D01*
X181049Y231290D01*
X183000Y230902D01*
X184951Y231290D01*
X186605Y232395D01*
X187710Y234049D01*
X188098Y236000D01*
X187710Y237951D01*
X186605Y239605D01*
X184951Y240710D01*
X183000Y241098D01*
D02*
G37*
G36*
X261000Y244098D02*
X259049Y243710D01*
X257395Y242605D01*
X256290Y240951D01*
X255902Y239000D01*
X256290Y237049D01*
X257395Y235395D01*
X259049Y234290D01*
X261000Y233902D01*
X262951Y234290D01*
X264605Y235395D01*
X265710Y237049D01*
X266098Y239000D01*
X265710Y240951D01*
X264605Y242605D01*
X262951Y243710D01*
X261000Y244098D01*
D02*
G37*
G36*
X239000D02*
X237049Y243710D01*
X235395Y242605D01*
X234290Y240951D01*
X233902Y239000D01*
X234290Y237049D01*
X235395Y235395D01*
X237049Y234290D01*
X239000Y233902D01*
X240951Y234290D01*
X242605Y235395D01*
X243710Y237049D01*
X244098Y239000D01*
X243710Y240951D01*
X242605Y242605D01*
X240951Y243710D01*
X239000Y244098D01*
D02*
G37*
G36*
X329000Y251098D02*
X327049Y250710D01*
X325395Y249605D01*
X324290Y247951D01*
X323902Y246000D01*
X324290Y244049D01*
X325395Y242395D01*
Y241605D01*
X324290Y239951D01*
X323902Y238000D01*
X324290Y236049D01*
X325395Y234395D01*
X327049Y233290D01*
X329000Y232902D01*
X330951Y233290D01*
X332605Y234395D01*
X333710Y236049D01*
X334098Y238000D01*
X333710Y239951D01*
X332605Y241605D01*
Y242395D01*
X333710Y244049D01*
X334098Y246000D01*
X333710Y247951D01*
X332605Y249605D01*
X330951Y250710D01*
X329000Y251098D01*
D02*
G37*
G36*
X210000Y236098D02*
X208049Y235710D01*
X206395Y234605D01*
X205290Y232951D01*
X204902Y231000D01*
X205290Y229049D01*
X206395Y227395D01*
X208049Y226290D01*
X210000Y225902D01*
X211951Y226290D01*
X213605Y227395D01*
X214710Y229049D01*
X215098Y231000D01*
X214710Y232951D01*
X213605Y234605D01*
X211951Y235710D01*
X210000Y236098D01*
D02*
G37*
G36*
X300500Y235098D02*
X298549Y234710D01*
X296895Y233605D01*
X295790Y231951D01*
X295402Y230000D01*
X295790Y228049D01*
X296895Y226395D01*
X298549Y225290D01*
X300500Y224902D01*
X302451Y225290D01*
X304105Y226395D01*
X305210Y228049D01*
X305598Y230000D01*
X305210Y231951D01*
X304105Y233605D01*
X302451Y234710D01*
X300500Y235098D01*
D02*
G37*
G36*
X277000Y228098D02*
X275049Y227710D01*
X273395Y226605D01*
X272290Y224951D01*
X271902Y223000D01*
X272290Y221049D01*
X273395Y219395D01*
X275049Y218290D01*
X277000Y217902D01*
X278951Y218290D01*
X280605Y219395D01*
X281710Y221049D01*
X282098Y223000D01*
X281710Y224951D01*
X280605Y226605D01*
X278951Y227710D01*
X277000Y228098D01*
D02*
G37*
G36*
X394000Y225098D02*
X392049Y224710D01*
X390395Y223605D01*
X389290Y221951D01*
X388902Y220000D01*
X389290Y218049D01*
X390395Y216395D01*
X392049Y215290D01*
X394000Y214902D01*
X395951Y215290D01*
X397605Y216395D01*
X398710Y218049D01*
X399098Y220000D01*
X398710Y221951D01*
X397605Y223605D01*
X395951Y224710D01*
X394000Y225098D01*
D02*
G37*
G36*
X378000D02*
X376049Y224710D01*
X374395Y223605D01*
X373290Y221951D01*
X372902Y220000D01*
X373290Y218049D01*
X374395Y216395D01*
X376049Y215290D01*
X378000Y214902D01*
X379951Y215290D01*
X381605Y216395D01*
X382710Y218049D01*
X383098Y220000D01*
X382710Y221951D01*
X381605Y223605D01*
X379951Y224710D01*
X378000Y225098D01*
D02*
G37*
G36*
X233000Y221098D02*
X231049Y220710D01*
X229395Y219605D01*
X228290Y217951D01*
X227902Y216000D01*
X228290Y214049D01*
X229395Y212395D01*
X231049Y211290D01*
X233000Y210902D01*
X234951Y211290D01*
X236605Y212395D01*
X237710Y214049D01*
X238098Y216000D01*
X237710Y217951D01*
X236605Y219605D01*
X234951Y220710D01*
X233000Y221098D01*
D02*
G37*
G36*
X340000Y226098D02*
X338049Y225710D01*
X336395Y224605D01*
X335290Y222951D01*
X334902Y221000D01*
X335290Y219049D01*
X336395Y217395D01*
Y216605D01*
X335290Y214951D01*
X334902Y213000D01*
X335290Y211049D01*
X336395Y209395D01*
X338049Y208290D01*
X340000Y207902D01*
X341951Y208290D01*
X343605Y209395D01*
X344710Y211049D01*
X345098Y213000D01*
X344710Y214951D01*
X343605Y216605D01*
Y217395D01*
X344710Y219049D01*
X345098Y221000D01*
X344710Y222951D01*
X343605Y224605D01*
X341951Y225710D01*
X340000Y226098D01*
D02*
G37*
G36*
X403000Y211098D02*
X401049Y210710D01*
X399395Y209605D01*
X398290Y207951D01*
X397902Y206000D01*
X398290Y204049D01*
X399395Y202395D01*
X401049Y201290D01*
X403000Y200902D01*
X404951Y201290D01*
X406605Y202395D01*
X407710Y204049D01*
X408098Y206000D01*
X407710Y207951D01*
X406605Y209605D01*
X404951Y210710D01*
X403000Y211098D01*
D02*
G37*
G36*
X369000D02*
X367049Y210710D01*
X365395Y209605D01*
X364290Y207951D01*
X363902Y206000D01*
X364290Y204049D01*
X365395Y202395D01*
X367049Y201290D01*
X369000Y200902D01*
X370951Y201290D01*
X372605Y202395D01*
X373710Y204049D01*
X374098Y206000D01*
X373710Y207951D01*
X372605Y209605D01*
X370951Y210710D01*
X369000Y211098D01*
D02*
G37*
G36*
X243000Y209098D02*
X241049Y208710D01*
X239395Y207605D01*
X238290Y205951D01*
X237902Y204000D01*
X238290Y202049D01*
X239395Y200395D01*
X241049Y199290D01*
X243000Y198902D01*
X244951Y199290D01*
X246605Y200395D01*
X247710Y202049D01*
X248098Y204000D01*
X247710Y205951D01*
X246605Y207605D01*
X244951Y208710D01*
X243000Y209098D01*
D02*
G37*
G36*
X308000Y200598D02*
X306049Y200210D01*
X304395Y199105D01*
X303290Y197451D01*
X302902Y195500D01*
X303290Y193549D01*
X304395Y191895D01*
X306049Y190790D01*
X308000Y190402D01*
X309951Y190790D01*
X311605Y191895D01*
X312710Y193549D01*
X313098Y195500D01*
X312710Y197451D01*
X311605Y199105D01*
X309951Y200210D01*
X308000Y200598D01*
D02*
G37*
G36*
X330500Y200598D02*
X328549Y200210D01*
X326895Y199105D01*
X325790Y197451D01*
X325402Y195500D01*
X325790Y193549D01*
X326895Y191895D01*
X328549Y190790D01*
X330500Y190402D01*
X332451Y190790D01*
X334105Y191895D01*
X335210Y193549D01*
X335598Y195500D01*
X335210Y197451D01*
X334105Y199105D01*
X332451Y200210D01*
X330500Y200598D01*
D02*
G37*
G36*
X141000Y214098D02*
X139049Y213710D01*
X137395Y212605D01*
X136290Y210951D01*
X135902Y209000D01*
X136290Y207049D01*
X137111Y205820D01*
X137280Y204500D01*
X137111Y203180D01*
X136290Y201951D01*
X135902Y200000D01*
X136290Y198049D01*
X137111Y196820D01*
X137280Y195500D01*
X137111Y194180D01*
X136290Y192951D01*
X135902Y191000D01*
X136290Y189049D01*
X137395Y187395D01*
X139049Y186290D01*
X141000Y185902D01*
X142951Y186290D01*
X144605Y187395D01*
X145710Y189049D01*
X146098Y191000D01*
X145710Y192951D01*
X144889Y194180D01*
X144720Y195500D01*
X144889Y196820D01*
X145710Y198049D01*
X146098Y200000D01*
X145710Y201951D01*
X144889Y203180D01*
X144720Y204500D01*
X144889Y205820D01*
X145710Y207049D01*
X146098Y209000D01*
X145710Y210951D01*
X144605Y212605D01*
X142951Y213710D01*
X141000Y214098D01*
D02*
G37*
G36*
X198500Y191098D02*
X196549Y190710D01*
X194895Y189605D01*
X193790Y187951D01*
X193402Y186000D01*
X193790Y184049D01*
X194895Y182395D01*
X196549Y181290D01*
X198500Y180902D01*
X200451Y181290D01*
X202105Y182395D01*
X203210Y184049D01*
X203598Y186000D01*
X203210Y187951D01*
X202105Y189605D01*
X200451Y190710D01*
X198500Y191098D01*
D02*
G37*
G36*
X403000Y191098D02*
X401049Y190710D01*
X399395Y189605D01*
X398290Y187951D01*
X397902Y186000D01*
X398290Y184049D01*
X399395Y182395D01*
X401049Y181290D01*
X403000Y180902D01*
X404951Y181290D01*
X406605Y182395D01*
X407710Y184049D01*
X408098Y186000D01*
X407710Y187951D01*
X406605Y189605D01*
X404951Y190710D01*
X403000Y191098D01*
D02*
G37*
G36*
X369000D02*
X367049Y190710D01*
X365395Y189605D01*
X364290Y187951D01*
X363902Y186000D01*
X364290Y184049D01*
X365395Y182395D01*
X367049Y181290D01*
X369000Y180902D01*
X370951Y181290D01*
X372605Y182395D01*
X373710Y184049D01*
X374098Y186000D01*
X373710Y187951D01*
X372605Y189605D01*
X370951Y190710D01*
X369000Y191098D01*
D02*
G37*
G36*
X135000Y174148D02*
X133049Y173760D01*
X131395Y172655D01*
X130290Y171001D01*
X129902Y169050D01*
X130290Y167099D01*
X131395Y165445D01*
X133049Y164340D01*
X135000Y163952D01*
X136951Y164340D01*
X138605Y165445D01*
X139710Y167099D01*
X140098Y169050D01*
X139710Y171001D01*
X138605Y172655D01*
X136951Y173760D01*
X135000Y174148D01*
D02*
G37*
G36*
X250000Y171098D02*
X248049Y170710D01*
X246395Y169605D01*
X245290Y167951D01*
X244902Y166000D01*
X245290Y164049D01*
X246395Y162395D01*
X248049Y161290D01*
X250000Y160902D01*
X251951Y161290D01*
X253605Y162395D01*
X254710Y164049D01*
X255098Y166000D01*
X254710Y167951D01*
X253605Y169605D01*
X251951Y170710D01*
X250000Y171098D01*
D02*
G37*
G36*
X85000Y160098D02*
X83049Y159710D01*
X81395Y158605D01*
X80290Y156951D01*
X79902Y155000D01*
X80290Y153049D01*
X81395Y151395D01*
X83049Y150290D01*
X85000Y149902D01*
X86951Y150290D01*
X88605Y151395D01*
X89710Y153049D01*
X90098Y155000D01*
X89710Y156951D01*
X88605Y158605D01*
X86951Y159710D01*
X85000Y160098D01*
D02*
G37*
G36*
X104000D02*
X102049Y159710D01*
X100395Y158605D01*
X99290Y156951D01*
X98902Y155000D01*
X99290Y153049D01*
X100395Y151395D01*
X100683Y151203D01*
Y148797D01*
X100395Y148605D01*
X98605D01*
X96951Y149710D01*
X95000Y150098D01*
X93049Y149710D01*
X91395Y148605D01*
X90290Y146951D01*
X89902Y145000D01*
X90290Y143049D01*
X91395Y141395D01*
X93049Y140290D01*
X95000Y139902D01*
X96951Y140290D01*
X98605Y141395D01*
X100395D01*
X102049Y140290D01*
X104000Y139902D01*
X105951Y140290D01*
X107605Y141395D01*
X108710Y143049D01*
X109098Y145000D01*
X108710Y146951D01*
X107605Y148605D01*
X107317Y148797D01*
Y151203D01*
X107605Y151395D01*
X108710Y153049D01*
X109098Y155000D01*
X108710Y156951D01*
X107605Y158605D01*
X105951Y159710D01*
X104000Y160098D01*
D02*
G37*
G36*
X85000Y140098D02*
X83049Y139710D01*
X81395Y138605D01*
X80290Y136951D01*
X79902Y135000D01*
X80290Y133049D01*
X81395Y131395D01*
X83049Y130290D01*
X85000Y129902D01*
X86951Y130290D01*
X88605Y131395D01*
X89710Y133049D01*
X90098Y135000D01*
X89710Y136951D01*
X88605Y138605D01*
X86951Y139710D01*
X85000Y140098D01*
D02*
G37*
G36*
X192000Y136098D02*
X190049Y135710D01*
X188395Y134605D01*
X187290Y132951D01*
X186902Y131000D01*
X187290Y129049D01*
X188395Y127395D01*
X190049Y126290D01*
X192000Y125902D01*
X193951Y126290D01*
X195605Y127395D01*
X196710Y129049D01*
X197098Y131000D01*
X196710Y132951D01*
X195605Y134605D01*
X193951Y135710D01*
X192000Y136098D01*
D02*
G37*
G36*
X135000Y136048D02*
X133049Y135660D01*
X131395Y134555D01*
X130290Y132901D01*
X129902Y130950D01*
X130290Y128999D01*
X131395Y127345D01*
X133049Y126240D01*
X135000Y125852D01*
X136951Y126240D01*
X138605Y127345D01*
X139710Y128999D01*
X140098Y130950D01*
X139710Y132901D01*
X138605Y134555D01*
X136951Y135660D01*
X135000Y136048D01*
D02*
G37*
G36*
X95000Y130098D02*
X93049Y129710D01*
X91395Y128605D01*
X90290Y126951D01*
X89902Y125000D01*
X90290Y123049D01*
X91395Y121395D01*
X93049Y120290D01*
X95000Y119902D01*
X96951Y120290D01*
X98605Y121395D01*
X99710Y123049D01*
X100098Y125000D01*
X99710Y126951D01*
X98605Y128605D01*
X96951Y129710D01*
X95000Y130098D01*
D02*
G37*
G36*
X386000Y125098D02*
X384049Y124710D01*
X382395Y123605D01*
X381290Y121951D01*
X380902Y120000D01*
X381290Y118049D01*
X382395Y116395D01*
X384049Y115290D01*
X386000Y114902D01*
X387951Y115290D01*
X389605Y116395D01*
X390710Y118049D01*
X391098Y120000D01*
X390710Y121951D01*
X389605Y123605D01*
X387951Y124710D01*
X386000Y125098D01*
D02*
G37*
G36*
X105000Y120098D02*
X103049Y119710D01*
X101395Y118605D01*
X100290Y116951D01*
X99902Y115000D01*
X100290Y113049D01*
X101395Y111395D01*
X103049Y110290D01*
X105000Y109902D01*
X106951Y110290D01*
X108605Y111395D01*
X109710Y113049D01*
X110098Y115000D01*
X109710Y116951D01*
X108605Y118605D01*
X106951Y119710D01*
X105000Y120098D01*
D02*
G37*
G36*
X85000D02*
X83049Y119710D01*
X81395Y118605D01*
X80290Y116951D01*
X79902Y115000D01*
X80290Y113049D01*
X81395Y111395D01*
X83049Y110290D01*
X85000Y109902D01*
X86951Y110290D01*
X88605Y111395D01*
X89710Y113049D01*
X90098Y115000D01*
X89710Y116951D01*
X88605Y118605D01*
X86951Y119710D01*
X85000Y120098D01*
D02*
G37*
G36*
X115000Y110098D02*
X113049Y109710D01*
X111395Y108605D01*
X110290Y106951D01*
X109902Y105000D01*
X110290Y103049D01*
X111395Y101395D01*
X113049Y100290D01*
X115000Y99902D01*
X116951Y100290D01*
X118605Y101395D01*
X119710Y103049D01*
X120098Y105000D01*
X119710Y106951D01*
X118605Y108605D01*
X116951Y109710D01*
X115000Y110098D01*
D02*
G37*
G36*
X95000D02*
X93049Y109710D01*
X91395Y108605D01*
X90290Y106951D01*
X89902Y105000D01*
X90290Y103049D01*
X91395Y101395D01*
X93049Y100290D01*
X95000Y99902D01*
X96951Y100290D01*
X98605Y101395D01*
X99710Y103049D01*
X100098Y105000D01*
X99710Y106951D01*
X98605Y108605D01*
X96951Y109710D01*
X95000Y110098D01*
D02*
G37*
G36*
X105000Y100098D02*
X103049Y99710D01*
X101395Y98605D01*
X100290Y96951D01*
X99902Y95000D01*
X100290Y93049D01*
X101395Y91395D01*
X103049Y90290D01*
X105000Y89902D01*
X106951Y90290D01*
X108605Y91395D01*
X109710Y93049D01*
X110098Y95000D01*
X109710Y96951D01*
X108605Y98605D01*
X106951Y99710D01*
X105000Y100098D01*
D02*
G37*
G36*
X85000D02*
X83049Y99710D01*
X81395Y98605D01*
X80290Y96951D01*
X79902Y95000D01*
X80290Y93049D01*
X81395Y91395D01*
X83049Y90290D01*
X85000Y89902D01*
X86951Y90290D01*
X88605Y91395D01*
X89710Y93049D01*
X90098Y95000D01*
X89710Y96951D01*
X88605Y98605D01*
X86951Y99710D01*
X85000Y100098D01*
D02*
G37*
G36*
X115000Y90098D02*
X113049Y89710D01*
X111395Y88605D01*
X110290Y86951D01*
X109902Y85000D01*
X110290Y83049D01*
X111395Y81395D01*
X113049Y80290D01*
X115000Y79902D01*
X116951Y80290D01*
X118605Y81395D01*
X119710Y83049D01*
X120098Y85000D01*
X119710Y86951D01*
X118605Y88605D01*
X116951Y89710D01*
X115000Y90098D01*
D02*
G37*
G36*
X95000D02*
X93049Y89710D01*
X91395Y88605D01*
X90290Y86951D01*
X89902Y85000D01*
X90290Y83049D01*
X91395Y81395D01*
X93049Y80290D01*
X95000Y79902D01*
X96951Y80290D01*
X98605Y81395D01*
X99710Y83049D01*
X100098Y85000D01*
X99710Y86951D01*
X98605Y88605D01*
X96951Y89710D01*
X95000Y90098D01*
D02*
G37*
%LPD*%
D25*
X280000Y273000D02*
D03*
X289000Y359000D02*
D03*
X301500Y308500D02*
D03*
X216000Y256000D02*
D03*
X273500Y369500D02*
D03*
X274000Y166000D02*
D03*
X227000D02*
D03*
X127000Y296000D02*
D03*
Y327000D02*
D03*
Y351000D02*
D03*
M02*
