M48
;Layer_Color=9474304
;FILE_FORMAT=4:4
METRIC,TZ
;TYPE=PLATED
T1F00S00C0.3000
T2F00S00C1.5000
%
T01
X95000Y85000
X115000
X85000Y95000
Y115000
Y135000
Y155000
Y335000
Y355000
Y375000
Y395000
X104000
Y385000
X95000
Y365000
Y345000
Y325000
X105000Y335000
X115000Y325000
X127000Y327000
Y351000
X115000Y345000
X105000Y355000
X135000Y370950
X192000
X191000Y431000
Y440000
Y449000
X104000Y409000
X127000Y296000
X125000Y285000
X127000Y250000
X141000Y209000
Y200000
Y191000
X135000Y169050
Y130950
X104000Y145000
X95000
X104000Y155000
X95000Y125000
X105000Y115000
X95000Y105000
X105000Y95000
X115000Y105000
X192000Y131000
X198500Y186000
X227000Y166000
X250000Y166000
X274000Y166000
X277000Y223000
X300500Y230000
X311000Y253000
X329000Y246000
Y238000
X329000Y261000
Y269000
X329000Y294000
Y302000
X324000Y326000
X317000
X301500Y308500
X280000Y273000
X261000Y261000
X239000
Y239000
X261000
X233000Y216000
X243000Y204000
X210000Y231000
X216000Y256000
X212000Y266000
X223000Y288049
X232500Y305000
X245000Y294000
X254500Y289000
X247500Y316500
X198500Y312000
X183000Y236000
X176000
X308000Y195500
X330500Y195500
X340000Y213000
Y221000
X378000Y220000
X394000
X403000Y206000
Y186000
X369000
Y206000
X378000Y280000
X394000
X403000Y294000
Y314000
X369000
Y294000
X386000Y380000
X289000Y359000
X273500Y369500
X284000Y405000
X386000Y120000
T02
X50000Y200000
Y300000
X450000
Y360000
Y200000
Y140000
M30
